{
	"asset":{
		"generator":"Khronos glTF Blender I/O v4.5.47",
		"version":"2.0"
	},
	"extensionsUsed":[
		"KHR_materials_specular"
	],
	"scene":0,
	"scenes":[
		{
			"name":"Scene",
			"nodes":[
				0
			]
		}
	],
	"nodes":[
		{
			"mesh":0,
			"name":"node0"
		}
	],
	"materials":[
		{
			"doubleSided":true,
			"extensions":{
				"KHR_materials_specular":{
					"specularFactor":0
				}
			},
			"name":"mat_2",
			"pbrMetallicRoughness":{
				"baseColorFactor":[
					0.8307698965072632,
					0.8307698965072632,
					0.8307698965072632,
					1
				],
				"metallicFactor":0.5,
				"roughnessFactor":0.5
			}
		}
	],
	"meshes":[
		{
			"name":"Part__Feature",
			"primitives":[
				{
					"attributes":{
						"POSITION":0,
						"NORMAL":1
					},
					"indices":2,
					"material":0
				}
			]
		}
	],
	"accessors":[
		{
			"bufferView":0,
			"componentType":5126,
			"count":55402,
			"max":[
				0.02999258041381836,
				0.02999746985733509,
				0.056997403502464294
			],
			"min":[
				-0.03000164031982422,
				-0.03552763909101486,
				-0.048864856362342834
			],
			"type":"VEC3"
		},
		{
			"bufferView":1,
			"componentType":5126,
			"count":55402,
			"type":"VEC3"
		},
		{
			"bufferView":2,
			"componentType":5123,
			"count":56763,
			"type":"SCALAR"
		}
	],
	"bufferViews":[
		{
			"buffer":0,
			"byteLength":664824,
			"byteOffset":0,
			"target":34962
		},
		{
			"buffer":0,
			"byteLength":664824,
			"byteOffset":664824,
			"target":34962
		},
		{
			"buffer":0,
			"byteLength":113526,
			"byteOffset":1329648,
			"target":34963
		}
	],
	"buffers":[
		{
			"byteLength":1443176,
			"uri":"G1-EDU_Ultimate_B_left_5.bin"
		}
	]
}
