{
	"asset":{
		"generator":"Khronos glTF Blender I/O v4.3.47",
		"version":"2.0"
	},
	"extensionsUsed":[
		"KHR_materials_specular"
	],
	"scene":0,
	"scenes":[
		{
			"name":"Scene",
			"nodes":[
				0
			]
		}
	],
	"nodes":[
		{
			"mesh":0,
			"name":"node61"
		}
	],
	"materials":[
		{
			"doubleSided":true,
			"extensions":{
				"KHR_materials_specular":{
					"specularFactor":0
				}
			},
			"name":"mat_2",
			"pbrMetallicRoughness":{
				"baseColorFactor":[
					0.8307698965072632,
					0.8307698965072632,
					0.8307698965072632,
					1
				],
				"metallicFactor":0.5,
				"roughnessFactor":0.5
			}
		}
	],
	"meshes":[
		{
			"name":"Part__Feature061.001",
			"primitives":[
				{
					"attributes":{
						"POSITION":0,
						"NORMAL":1
					},
					"indices":2,
					"material":0
				}
			]
		}
	],
	"accessors":[
		{
			"bufferView":0,
			"componentType":5126,
			"count":25815,
			"max":[
				0.032503642141819,
				0.1121765524148941,
				0.0484820231795311
			],
			"min":[
				-0.0383182093501091,
				-0.03309490904211998,
				-0.032705146819353104
			],
			"type":"VEC3"
		},
		{
			"bufferView":1,
			"componentType":5126,
			"count":25815,
			"type":"VEC3"
		},
		{
			"bufferView":2,
			"componentType":5123,
			"count":27618,
			"type":"SCALAR"
		}
	],
	"bufferViews":[
		{
			"buffer":0,
			"byteLength":309780,
			"byteOffset":0,
			"target":34962
		},
		{
			"buffer":0,
			"byteLength":309780,
			"byteOffset":309780,
			"target":34962
		},
		{
			"buffer":0,
			"byteLength":55236,
			"byteOffset":619560,
			"target":34963
		}
	],
	"buffers":[
		{
			"byteLength":674796,
			"uri":"G1-EDU_Ultimate_B_left_3.bin"
		}
	]
}
