{
	"asset":{
		"generator":"Khronos glTF Blender I/O v4.5.47",
		"version":"2.0"
	},
	"extensionsUsed":[
		"KHR_materials_specular"
	],
	"scene":0,
	"scenes":[
		{
			"name":"Scene",
			"nodes":[
				0
			]
		}
	],
	"nodes":[
		{
			"mesh":0,
			"name":"node28.001",
			"rotation":[
				0,
				0.7071068286895752,
				0,
				0.7071068286895752
			],
			"translation":[
				0,
				0,
				0.009499999694526196
			]
		}
	],
	"materials":[
		{
			"doubleSided":true,
			"extensions":{
				"KHR_materials_specular":{
					"specularFactor":0
				}
			},
			"name":"mat_2.001",
			"pbrMetallicRoughness":{
				"baseColorFactor":[
					0.8307698965072632,
					0.8307698965072632,
					0.8307698965072632,
					1
				],
				"metallicFactor":0.5,
				"roughnessFactor":0.5
			}
		},
		{
			"doubleSided":true,
			"extensions":{
				"KHR_materials_specular":{
					"specularFactor":0
				}
			},
			"name":"mat_2",
			"pbrMetallicRoughness":{
				"baseColorFactor":[
					0.8307698965072632,
					0.8307698965072632,
					0.8307698965072632,
					1
				],
				"metallicFactor":0.5,
				"roughnessFactor":0.5
			}
		}
	],
	"meshes":[
		{
			"name":"Part__Feature028.001",
			"primitives":[
				{
					"attributes":{
						"POSITION":0,
						"NORMAL":1
					},
					"indices":2,
					"material":0
				},
				{
					"attributes":{
						"POSITION":3,
						"NORMAL":4
					},
					"indices":5,
					"material":1
				}
			]
		}
	],
	"accessors":[
		{
			"bufferView":0,
			"componentType":5126,
			"count":50092,
			"max":[
				0.13229380548000336,
				-0.2568708062171936,
				0.045219480991363525
			],
			"min":[
				0.04429471120238304,
				-0.3448631167411804,
				-0.011882839724421501
			],
			"type":"VEC3"
		},
		{
			"bufferView":1,
			"componentType":5126,
			"count":50092,
			"type":"VEC3"
		},
		{
			"bufferView":2,
			"componentType":5123,
			"count":51024,
			"type":"SCALAR"
		},
		{
			"bufferView":3,
			"componentType":5126,
			"count":119321,
			"max":[
				0.13731420040130615,
				-0.12295999377965927,
				0.04401247948408127
			],
			"min":[
				-0.0425679013133049,
				-0.34985360503196716,
				-0.0440136082470417
			],
			"type":"VEC3"
		},
		{
			"bufferView":4,
			"componentType":5126,
			"count":119321,
			"type":"VEC3"
		},
		{
			"bufferView":5,
			"componentType":5125,
			"count":120513,
			"type":"SCALAR"
		}
	],
	"bufferViews":[
		{
			"buffer":0,
			"byteLength":601104,
			"byteOffset":0,
			"target":34962
		},
		{
			"buffer":0,
			"byteLength":601104,
			"byteOffset":601104,
			"target":34962
		},
		{
			"buffer":0,
			"byteLength":102048,
			"byteOffset":1202208,
			"target":34963
		},
		{
			"buffer":0,
			"byteLength":1431852,
			"byteOffset":1304256,
			"target":34962
		},
		{
			"buffer":0,
			"byteLength":1431852,
			"byteOffset":2736108,
			"target":34962
		},
		{
			"buffer":0,
			"byteLength":482052,
			"byteOffset":4167960,
			"target":34963
		}
	],
	"buffers":[
		{
			"byteLength":4650012,
			"uri":"G1-EDU_Ultimate_B_Leg_R_2_2.bin"
		}
	]
}
