{
	"asset":{
		"generator":"Khronos glTF Blender I/O v4.5.47",
		"version":"2.0"
	},
	"extensionsUsed":[
		"KHR_materials_specular"
	],
	"scene":0,
	"scenes":[
		{
			"name":"Scene",
			"nodes":[
				0
			]
		}
	],
	"nodes":[
		{
			"mesh":0,
			"name":"node28",
			"rotation":[
				0,
				0.7071068286895752,
				0,
				0.7071068286895752
			]
		}
	],
	"materials":[
		{
			"doubleSided":true,
			"extensions":{
				"KHR_materials_specular":{
					"specularFactor":0
				}
			},
			"name":"mat_2",
			"pbrMetallicRoughness":{
				"baseColorFactor":[
					0.8307698965072632,
					0.8307698965072632,
					0.8307698965072632,
					1
				],
				"metallicFactor":0.5,
				"roughnessFactor":0.5
			}
		}
	],
	"meshes":[
		{
			"name":"Part__Feature028",
			"primitives":[
				{
					"attributes":{
						"POSITION":0,
						"NORMAL":1
					},
					"indices":2,
					"material":0
				}
			]
		}
	],
	"accessors":[
		{
			"bufferView":0,
			"componentType":5126,
			"count":217600,
			"max":[
				0.13731417059898376,
				0.04695522412657738,
				0.048946499824523926
			],
			"min":[
				-0.045154768973588943,
				-0.3498535752296448,
				-0.04894756153225899
			],
			"type":"VEC3"
		},
		{
			"bufferView":1,
			"componentType":5126,
			"count":217600,
			"type":"VEC3"
		},
		{
			"bufferView":2,
			"componentType":5125,
			"count":221568,
			"type":"SCALAR"
		}
	],
	"bufferViews":[
		{
			"buffer":0,
			"byteLength":2611200,
			"byteOffset":0,
			"target":34962
		},
		{
			"buffer":0,
			"byteLength":2611200,
			"byteOffset":2611200,
			"target":34962
		},
		{
			"buffer":0,
			"byteLength":886272,
			"byteOffset":5222400,
			"target":34963
		}
	],
	"buffers":[
		{
			"byteLength":6108672,
			"uri":"G1-EDU_Ultimate_B_Leg_R_2.bin"
		}
	]
}
