{
	"asset":{
		"generator":"Khronos glTF Blender I/O v4.3.47",
		"version":"2.0"
	},
	"scene":0,
	"scenes":[
		{
			"name":"Scene",
			"nodes":[
				0
			]
		}
	],
	"nodes":[
		{
			"mesh":0,
			"name":"node62"
		}
	],
	"materials":[
		{
			"doubleSided":true,
			"name":"mat_2",
			"pbrMetallicRoughness":{
				"baseColorFactor":[
					0.8307698965072632,
					0.8307698965072632,
					0.8307698965072632,
					1
				],
				"metallicFactor":0.5,
				"roughnessFactor":0.5
			}
		}
	],
	"meshes":[
		{
			"name":"Part__Feature062.001",
			"primitives":[
				{
					"attributes":{
						"POSITION":0,
						"NORMAL":1
					},
					"indices":2,
					"material":0
				}
			]
		}
	],
	"accessors":[
		{
			"bufferView":0,
			"componentType":5126,
			"count":163538,
			"max":[
				0.03952682018280029,
				0.03332430124282837,
				0.04153329133987427
			],
			"min":[
				-0.03333050012588501,
				-0.07072842121124268,
				-0.0396609902381897
			],
			"type":"VEC3"
		},
		{
			"bufferView":1,
			"componentType":5126,
			"count":163538,
			"type":"VEC3"
		},
		{
			"bufferView":2,
			"componentType":5125,
			"count":164604,
			"type":"SCALAR"
		}
	],
	"bufferViews":[
		{
			"buffer":0,
			"byteLength":1962456,
			"byteOffset":0,
			"target":34962
		},
		{
			"buffer":0,
			"byteLength":1962456,
			"byteOffset":1962456,
			"target":34962
		},
		{
			"buffer":0,
			"byteLength":658416,
			"byteOffset":3924912,
			"target":34963
		}
	],
	"buffers":[
		{
			"byteLength":4583328,
			"uri":"G1-EDU_Ultimate_B_left_2.bin"
		}
	]
}
