{
	"asset":{
		"generator":"Khronos glTF Blender I/O v4.5.47",
		"version":"2.0"
	},
	"extensionsUsed":[
		"KHR_materials_specular"
	],
	"scene":0,
	"scenes":[
		{
			"name":"Scene",
			"nodes":[
				0
			]
		}
	],
	"nodes":[
		{
			"mesh":0,
			"name":"node31"
		}
	],
	"materials":[
		{
			"doubleSided":true,
			"extensions":{
				"KHR_materials_specular":{
					"specularFactor":0
				}
			},
			"name":"mat_2",
			"pbrMetallicRoughness":{
				"baseColorFactor":[
					0.8307698965072632,
					0.8307698965072632,
					0.8307698965072632,
					1
				],
				"metallicFactor":0.5,
				"roughnessFactor":0.5
			}
		},
		{
			"doubleSided":true,
			"extensions":{
				"KHR_materials_specular":{
					"specularFactor":0
				}
			},
			"name":"Part__Feature039",
			"pbrMetallicRoughness":{
				"baseColorFactor":[
					0.67843097448349,
					0.7098039984703064,
					0.7411760091781616,
					1
				],
				"metallicFactor":0,
				"roughnessFactor":0.5
			}
		},
		{
			"doubleSided":true,
			"extensions":{
				"KHR_materials_specular":{
					"specularFactor":0
				}
			},
			"name":"Part__Feature040",
			"pbrMetallicRoughness":{
				"baseColorFactor":[
					0.67843097448349,
					0.7098039984703064,
					0.7411760091781616,
					1
				],
				"metallicFactor":0,
				"roughnessFactor":0.5
			}
		}
	],
	"meshes":[
		{
			"name":"Part__Feature031",
			"primitives":[
				{
					"attributes":{
						"POSITION":0,
						"NORMAL":1
					},
					"indices":2,
					"material":0
				},
				{
					"attributes":{
						"POSITION":3,
						"NORMAL":4
					},
					"indices":5,
					"material":1
				},
				{
					"attributes":{
						"POSITION":6,
						"NORMAL":7
					},
					"indices":8,
					"material":2
				}
			]
		}
	],
	"accessors":[
		{
			"bufferView":0,
			"componentType":5126,
			"count":225024,
			"max":[
				0.04299746826291084,
				0.062641441822052,
				0.11004789918661118
			],
			"min":[
				-0.04301327094435692,
				-0.02499479055404663,
				1.7970299381886434e-07
			],
			"type":"VEC3"
		},
		{
			"bufferView":1,
			"componentType":5126,
			"count":225024,
			"type":"VEC3"
		},
		{
			"bufferView":2,
			"componentType":5125,
			"count":227154,
			"type":"SCALAR"
		},
		{
			"bufferView":3,
			"componentType":5126,
			"count":89827,
			"max":[
				0.010172960348427296,
				0.05393457040190697,
				0.1406182050704956
			],
			"min":[
				-0.012771899811923504,
				0.03524965047836304,
				0.09517674893140793
			],
			"type":"VEC3"
		},
		{
			"bufferView":4,
			"componentType":5126,
			"count":89827,
			"type":"VEC3"
		},
		{
			"bufferView":5,
			"componentType":5125,
			"count":89964,
			"type":"SCALAR"
		},
		{
			"bufferView":6,
			"componentType":5126,
			"count":41111,
			"max":[
				0.008645712397992611,
				0.05603574961423874,
				0.13857640326023102
			],
			"min":[
				-0.011355279944837093,
				0.03918277844786644,
				0.08467274159193039
			],
			"type":"VEC3"
		},
		{
			"bufferView":7,
			"componentType":5126,
			"count":41111,
			"type":"VEC3"
		},
		{
			"bufferView":8,
			"componentType":5123,
			"count":41274,
			"type":"SCALAR"
		}
	],
	"bufferViews":[
		{
			"buffer":0,
			"byteLength":2700288,
			"byteOffset":0,
			"target":34962
		},
		{
			"buffer":0,
			"byteLength":2700288,
			"byteOffset":2700288,
			"target":34962
		},
		{
			"buffer":0,
			"byteLength":908616,
			"byteOffset":5400576,
			"target":34963
		},
		{
			"buffer":0,
			"byteLength":1077924,
			"byteOffset":6309192,
			"target":34962
		},
		{
			"buffer":0,
			"byteLength":1077924,
			"byteOffset":7387116,
			"target":34962
		},
		{
			"buffer":0,
			"byteLength":359856,
			"byteOffset":8465040,
			"target":34963
		},
		{
			"buffer":0,
			"byteLength":493332,
			"byteOffset":8824896,
			"target":34962
		},
		{
			"buffer":0,
			"byteLength":493332,
			"byteOffset":9318228,
			"target":34962
		},
		{
			"buffer":0,
			"byteLength":82548,
			"byteOffset":9811560,
			"target":34963
		}
	],
	"buffers":[
		{
			"byteLength":9894108,
			"uri":"G1-EDU_Ultimate_B_right_8.bin"
		}
	]
}
