{
	"asset":{
		"generator":"Khronos glTF Blender I/O v4.5.47",
		"version":"2.0"
	},
	"extensionsUsed":[
		"KHR_materials_specular"
	],
	"scene":0,
	"scenes":[
		{
			"name":"Scene",
			"nodes":[
				0
			]
		}
	],
	"nodes":[
		{
			"mesh":0,
			"name":"node21.001",
			"rotation":[
				-0.18223553895950317,
				0,
				0,
				0.9832549095153809
			]
		}
	],
	"materials":[
		{
			"doubleSided":true,
			"extensions":{
				"KHR_materials_specular":{
					"specularFactor":0
				}
			},
			"name":"mat_2",
			"pbrMetallicRoughness":{
				"baseColorFactor":[
					0.8307698965072632,
					0.8307698965072632,
					0.8307698965072632,
					1
				],
				"metallicFactor":0.5,
				"roughnessFactor":0.5
			}
		}
	],
	"meshes":[
		{
			"name":"Part__Feature021.001",
			"primitives":[
				{
					"attributes":{
						"POSITION":0,
						"NORMAL":1
					},
					"indices":2,
					"material":0
				}
			]
		}
	],
	"accessors":[
		{
			"bufferView":0,
			"componentType":5126,
			"count":123618,
			"max":[
				0.03784966096282005,
				0.016258709132671356,
				0.11903800070285797
			],
			"min":[
				-0.03767627105116844,
				-0.10015419870615005,
				-0.08024220913648605
			],
			"type":"VEC3"
		},
		{
			"bufferView":1,
			"componentType":5126,
			"count":123618,
			"type":"VEC3"
		},
		{
			"bufferView":2,
			"componentType":5125,
			"count":124062,
			"type":"SCALAR"
		}
	],
	"bufferViews":[
		{
			"buffer":0,
			"byteLength":1483416,
			"byteOffset":0,
			"target":34962
		},
		{
			"buffer":0,
			"byteLength":1483416,
			"byteOffset":1483416,
			"target":34962
		},
		{
			"buffer":0,
			"byteLength":496248,
			"byteOffset":2966832,
			"target":34963
		}
	],
	"buffers":[
		{
			"byteLength":3463080,
			"uri":"G1-EDU_Ultimate_B_Leg_R_4.bin"
		}
	]
}
