{
	"asset":{
		"generator":"Khronos glTF Blender I/O v4.5.47",
		"version":"2.0"
	},
	"extensionsUsed":[
		"KHR_materials_specular"
	],
	"scene":0,
	"scenes":[
		{
			"name":"Scene",
			"nodes":[
				0
			]
		}
	],
	"nodes":[
		{
			"mesh":0,
			"name":"MeshBody2"
		}
	],
	"materials":[
		{
			"doubleSided":true,
			"extensions":{
				"KHR_materials_specular":{
					"specularFactor":0
				}
			},
			"name":"mat_2",
			"pbrMetallicRoughness":{
				"baseColorFactor":[
					0.8307698965072632,
					0.8307698965072632,
					0.8307698965072632,
					1
				],
				"metallicFactor":0.5,
				"roughnessFactor":0.5
			}
		}
	],
	"meshes":[
		{
			"name":"MeshBody2",
			"primitives":[
				{
					"attributes":{
						"POSITION":0,
						"NORMAL":1
					},
					"indices":2,
					"material":0
				}
			]
		}
	],
	"accessors":[
		{
			"bufferView":0,
			"componentType":5126,
			"count":49599,
			"max":[
				0.04894644021987915,
				0.04695510119199753,
				0.04515475034713745
			],
			"min":[
				-0.048947449773550034,
				-0.12295999377965927,
				-0.06129281967878342
			],
			"type":"VEC3"
		},
		{
			"bufferView":1,
			"componentType":5126,
			"count":49599,
			"type":"VEC3"
		},
		{
			"bufferView":2,
			"componentType":5123,
			"count":51351,
			"type":"SCALAR"
		}
	],
	"bufferViews":[
		{
			"buffer":0,
			"byteLength":595188,
			"byteOffset":0,
			"target":34962
		},
		{
			"buffer":0,
			"byteLength":595188,
			"byteOffset":595188,
			"target":34962
		},
		{
			"buffer":0,
			"byteLength":102702,
			"byteOffset":1190376,
			"target":34963
		}
	],
	"buffers":[
		{
			"byteLength":1293080,
			"uri":"G1-EDU_Ultimate_B_Leg_R_2_1.bin"
		}
	]
}
