{
	"asset":{
		"generator":"Khronos glTF Blender I/O v4.5.47",
		"version":"2.0"
	},
	"extensionsUsed":[
		"KHR_materials_specular"
	],
	"scene":0,
	"scenes":[
		{
			"name":"Scene",
			"nodes":[
				0
			]
		}
	],
	"nodes":[
		{
			"mesh":0,
			"name":"MeshBody1",
			"translation":[
				0,
				0,
				0.009499999694526196
			]
		}
	],
	"materials":[
		{
			"doubleSided":true,
			"extensions":{
				"KHR_materials_specular":{
					"specularFactor":0
				}
			},
			"name":"mat_2",
			"pbrMetallicRoughness":{
				"baseColorFactor":[
					0.8307698965072632,
					0.8307698965072632,
					0.8307698965072632,
					1
				],
				"metallicFactor":0.5,
				"roughnessFactor":0.5
			}
		},
		{
			"doubleSided":true,
			"extensions":{
				"KHR_materials_specular":{
					"specularFactor":0
				}
			},
			"name":"mat_2.001",
			"pbrMetallicRoughness":{
				"baseColorFactor":[
					0.8307698965072632,
					0.8307698965072632,
					0.8307698965072632,
					1
				],
				"metallicFactor":0.5,
				"roughnessFactor":0.5
			}
		}
	],
	"meshes":[
		{
			"name":"MeshBody1",
			"primitives":[
				{
					"attributes":{
						"POSITION":0,
						"NORMAL":1,
						"TEXCOORD_0":2
					},
					"indices":3,
					"material":0
				},
				{
					"attributes":{
						"POSITION":4,
						"NORMAL":5,
						"TEXCOORD_0":6
					},
					"indices":7,
					"material":1
				}
			]
		}
	],
	"accessors":[
		{
			"bufferView":0,
			"componentType":5126,
			"count":119788,
			"max":[
				0.04381632059812546,
				-0.12296999990940094,
				0.042559560388326645
			],
			"min":[
				-0.04381626099348068,
				-0.3498513996601105,
				-0.1373210996389389
			],
			"type":"VEC3"
		},
		{
			"bufferView":1,
			"componentType":5126,
			"count":119788,
			"type":"VEC3"
		},
		{
			"bufferView":2,
			"componentType":5126,
			"count":119788,
			"type":"VEC2"
		},
		{
			"bufferView":3,
			"componentType":5125,
			"count":121143,
			"type":"SCALAR"
		},
		{
			"bufferView":4,
			"componentType":5126,
			"count":49207,
			"max":[
				0.011882300488650799,
				-0.2568686902523041,
				-0.04430145025253296
			],
			"min":[
				-0.04522000998258591,
				-0.3448610007762909,
				-0.1323007047176361
			],
			"type":"VEC3"
		},
		{
			"bufferView":5,
			"componentType":5126,
			"count":49207,
			"type":"VEC3"
		},
		{
			"bufferView":6,
			"componentType":5126,
			"count":49207,
			"type":"VEC2"
		},
		{
			"bufferView":7,
			"componentType":5123,
			"count":50154,
			"type":"SCALAR"
		}
	],
	"bufferViews":[
		{
			"buffer":0,
			"byteLength":1437456,
			"byteOffset":0,
			"target":34962
		},
		{
			"buffer":0,
			"byteLength":1437456,
			"byteOffset":1437456,
			"target":34962
		},
		{
			"buffer":0,
			"byteLength":958304,
			"byteOffset":2874912,
			"target":34962
		},
		{
			"buffer":0,
			"byteLength":484572,
			"byteOffset":3833216,
			"target":34963
		},
		{
			"buffer":0,
			"byteLength":590484,
			"byteOffset":4317788,
			"target":34962
		},
		{
			"buffer":0,
			"byteLength":590484,
			"byteOffset":4908272,
			"target":34962
		},
		{
			"buffer":0,
			"byteLength":393656,
			"byteOffset":5498756,
			"target":34962
		},
		{
			"buffer":0,
			"byteLength":100308,
			"byteOffset":5892412,
			"target":34963
		}
	],
	"buffers":[
		{
			"byteLength":5992720,
			"uri":"G1-EDU_Ultimate_B_Leg_L_2_2.bin"
		}
	]
}
