{
	"asset":{
		"generator":"Khronos glTF Blender I/O v4.5.47",
		"version":"2.0"
	},
	"extensionsUsed":[
		"KHR_materials_specular"
	],
	"scene":0,
	"scenes":[
		{
			"name":"Scene",
			"nodes":[
				0
			]
		}
	],
	"nodes":[
		{
			"mesh":0,
			"name":"node17",
			"rotation":[
				0,
				0.7071068286895752,
				0,
				0.7071068286895752
			]
		}
	],
	"materials":[
		{
			"doubleSided":true,
			"extensions":{
				"KHR_materials_specular":{
					"specularFactor":0
				}
			},
			"name":"mat_2",
			"pbrMetallicRoughness":{
				"baseColorFactor":[
					0.8307698965072632,
					0.8307698965072632,
					0.8307698965072632,
					1
				],
				"metallicFactor":0.5,
				"roughnessFactor":0.5
			}
		}
	],
	"meshes":[
		{
			"name":"Part__Feature017",
			"primitives":[
				{
					"attributes":{
						"POSITION":0,
						"NORMAL":1
					},
					"indices":2,
					"material":0
				}
			]
		}
	],
	"accessors":[
		{
			"bufferView":0,
			"componentType":5126,
			"count":540399,
			"max":[
				0.1669614017009735,
				0.04001032933592796,
				0.0358523353934288
			],
			"min":[
				-0.06312213093042374,
				-0.2835036516189575,
				-0.03584406524896622
			],
			"type":"VEC3"
		},
		{
			"bufferView":1,
			"componentType":5126,
			"count":540399,
			"type":"VEC3"
		},
		{
			"bufferView":2,
			"componentType":5125,
			"count":544338,
			"type":"SCALAR"
		}
	],
	"bufferViews":[
		{
			"buffer":0,
			"byteLength":6484788,
			"byteOffset":0,
			"target":34962
		},
		{
			"buffer":0,
			"byteLength":6484788,
			"byteOffset":6484788,
			"target":34962
		},
		{
			"buffer":0,
			"byteLength":2177352,
			"byteOffset":12969576,
			"target":34963
		}
	],
	"buffers":[
		{
			"byteLength":15146928,
			"uri":"G1-EDU_Ultimate_B_Leg_R_3.bin"
		}
	]
}
