{
	"asset":{
		"generator":"Khronos glTF Blender I/O v4.5.47",
		"version":"2.0"
	},
	"extensionsUsed":[
		"KHR_materials_specular"
	],
	"scene":0,
	"scenes":[
		{
			"name":"Scene",
			"nodes":[
				0
			]
		}
	],
	"nodes":[
		{
			"mesh":0,
			"name":"node34",
			"rotation":[
				0,
				0.7071067094802856,
				0,
				0.7071068286895752
			]
		}
	],
	"materials":[
		{
			"doubleSided":true,
			"extensions":{
				"KHR_materials_specular":{
					"specularFactor":0
				}
			},
			"name":"mat_2",
			"pbrMetallicRoughness":{
				"baseColorFactor":[
					0.8307698965072632,
					0.8307698965072632,
					0.8307698965072632,
					1
				],
				"metallicFactor":0.5,
				"roughnessFactor":0.5
			}
		}
	],
	"meshes":[
		{
			"name":"Part__Feature034",
			"primitives":[
				{
					"attributes":{
						"POSITION":0,
						"NORMAL":1
					},
					"indices":2,
					"material":0
				}
			]
		}
	],
	"accessors":[
		{
			"bufferView":0,
			"componentType":5126,
			"count":45496,
			"max":[
				0.017998749390244484,
				0.02387320064008236,
				0.030501119792461395
			],
			"min":[
				-0.041008710861206055,
				-0.029992040246725082,
				-0.03000384010374546
			],
			"type":"VEC3"
		},
		{
			"bufferView":1,
			"componentType":5126,
			"count":45496,
			"type":"VEC3"
		},
		{
			"bufferView":2,
			"componentType":5123,
			"count":46200,
			"type":"SCALAR"
		}
	],
	"bufferViews":[
		{
			"buffer":0,
			"byteLength":545952,
			"byteOffset":0,
			"target":34962
		},
		{
			"buffer":0,
			"byteLength":545952,
			"byteOffset":545952,
			"target":34962
		},
		{
			"buffer":0,
			"byteLength":92400,
			"byteOffset":1091904,
			"target":34963
		}
	],
	"buffers":[
		{
			"byteLength":1184304,
			"uri":"G1-EDU_Ultimate_B_right_7.bin"
		}
	]
}
