{
	"asset":{
		"generator":"Khronos glTF Blender I/O v4.3.47",
		"version":"2.0"
	},
	"scene":0,
	"scenes":[
		{
			"name":"Scene",
			"nodes":[
				0
			]
		}
	],
	"nodes":[
		{
			"mesh":0,
			"name":"node81"
		}
	],
	"materials":[
		{
			"doubleSided":true,
			"name":"mat_2",
			"pbrMetallicRoughness":{
				"baseColorFactor":[
					0.8307698965072632,
					0.8307698965072632,
					0.8307698965072632,
					1
				],
				"metallicFactor":0.5,
				"roughnessFactor":0.5
			}
		}
	],
	"meshes":[
		{
			"name":"Part__Feature081",
			"primitives":[
				{
					"attributes":{
						"POSITION":0,
						"NORMAL":1
					},
					"indices":2,
					"material":0
				}
			]
		}
	],
	"accessors":[
		{
			"bufferView":0,
			"componentType":5126,
			"count":152181,
			"max":[
				0.007854222320020199,
				0.05339204892516136,
				0.031027069315314293
			],
			"min":[
				-0.12345920503139496,
				-0.027399590238928795,
				-0.03102188929915428
			],
			"type":"VEC3"
		},
		{
			"bufferView":1,
			"componentType":5126,
			"count":152181,
			"type":"VEC3"
		},
		{
			"bufferView":2,
			"componentType":5125,
			"count":154776,
			"type":"SCALAR"
		}
	],
	"bufferViews":[
		{
			"buffer":0,
			"byteLength":1826172,
			"byteOffset":0,
			"target":34962
		},
		{
			"buffer":0,
			"byteLength":1826172,
			"byteOffset":1826172,
			"target":34962
		},
		{
			"buffer":0,
			"byteLength":619104,
			"byteOffset":3652344,
			"target":34963
		}
	],
	"buffers":[
		{
			"byteLength":4271448,
			"uri":"G1-EDU_Ultimate_B_right_1.bin"
		}
	]
}
