{
	"asset":{
		"generator":"Khronos glTF Blender I/O v4.5.47",
		"version":"2.0"
	},
	"extensionsUsed":[
		"KHR_materials_specular"
	],
	"scene":0,
	"scenes":[
		{
			"name":"Scene",
			"nodes":[
				0
			]
		}
	],
	"nodes":[
		{
			"mesh":0,
			"name":"node80",
			"rotation":[
				0,
				0.7071068286895752,
				0,
				0.7071068286895752
			]
		}
	],
	"materials":[
		{
			"doubleSided":true,
			"extensions":{
				"KHR_materials_specular":{
					"specularFactor":0
				}
			},
			"name":"mat_2",
			"pbrMetallicRoughness":{
				"baseColorFactor":[
					0.8307698965072632,
					0.8307698965072632,
					0.8307698965072632,
					1
				],
				"metallicFactor":0.5,
				"roughnessFactor":0.5
			}
		}
	],
	"meshes":[
		{
			"name":"Part__Feature080",
			"primitives":[
				{
					"attributes":{
						"POSITION":0,
						"NORMAL":1
					},
					"indices":2,
					"material":0
				}
			]
		}
	],
	"accessors":[
		{
			"bufferView":0,
			"componentType":5126,
			"count":5291,
			"max":[
				0.028567731380462646,
				0.028487252071499825,
				0.028506983071565628
			],
			"min":[
				-0.07443832606077194,
				-0.028513388708233833,
				-0.028492789715528488
			],
			"type":"VEC3"
		},
		{
			"bufferView":1,
			"componentType":5126,
			"count":5291,
			"type":"VEC3"
		},
		{
			"bufferView":2,
			"componentType":5123,
			"count":5676,
			"type":"SCALAR"
		}
	],
	"bufferViews":[
		{
			"buffer":0,
			"byteLength":63492,
			"byteOffset":0,
			"target":34962
		},
		{
			"buffer":0,
			"byteLength":63492,
			"byteOffset":63492,
			"target":34962
		},
		{
			"buffer":0,
			"byteLength":11352,
			"byteOffset":126984,
			"target":34963
		}
	],
	"buffers":[
		{
			"byteLength":138336,
			"uri":"G1-EDU_Ultimate_B_left_6.bin"
		}
	]
}
