{
	"asset":{
		"generator":"Khronos glTF Blender I/O v4.5.47",
		"version":"2.0"
	},
	"extensionsUsed":[
		"KHR_materials_specular"
	],
	"scene":0,
	"scenes":[
		{
			"name":"Scene",
			"nodes":[
				0
			]
		}
	],
	"nodes":[
		{
			"mesh":0,
			"name":"node31"
		}
	],
	"materials":[
		{
			"doubleSided":true,
			"extensions":{
				"KHR_materials_specular":{
					"specularFactor":0
				}
			},
			"name":"mat_2",
			"pbrMetallicRoughness":{
				"baseColorFactor":[
					0.8307698965072632,
					0.8307698965072632,
					0.8307698965072632,
					1
				],
				"metallicFactor":0.5,
				"roughnessFactor":0.5
			}
		}
	],
	"meshes":[
		{
			"name":"Part__Feature031",
			"primitives":[
				{
					"attributes":{
						"POSITION":0,
						"NORMAL":1
					},
					"indices":2,
					"material":0
				}
			]
		}
	],
	"accessors":[
		{
			"bufferView":0,
			"componentType":5126,
			"count":356203,
			"max":[
				0.04299740865826607,
				0.062641441822052,
				0.1406182050704956
			],
			"min":[
				-0.04301327094435692,
				-0.02499479055404663,
				1.7970299381886434e-07
			],
			"type":"VEC3"
		},
		{
			"bufferView":1,
			"componentType":5126,
			"count":356203,
			"type":"VEC3"
		},
		{
			"bufferView":2,
			"componentType":5125,
			"count":358392,
			"type":"SCALAR"
		}
	],
	"bufferViews":[
		{
			"buffer":0,
			"byteLength":4274436,
			"byteOffset":0,
			"target":34962
		},
		{
			"buffer":0,
			"byteLength":4274436,
			"byteOffset":4274436,
			"target":34962
		},
		{
			"buffer":0,
			"byteLength":1433568,
			"byteOffset":8548872,
			"target":34963
		}
	],
	"buffers":[
		{
			"byteLength":9982440,
			"uri":"G1-EDU_Ultimate_B_right_8.bin"
		}
	]
}
