{
	"asset":{
		"generator":"Khronos glTF Blender I/O v4.5.47",
		"version":"2.0"
	},
	"extensionsUsed":[
		"KHR_materials_specular"
	],
	"scene":0,
	"scenes":[
		{
			"name":"Scene",
			"nodes":[
				0
			]
		}
	],
	"nodes":[
		{
			"mesh":0,
			"name":"node19"
		}
	],
	"materials":[
		{
			"doubleSided":true,
			"extensions":{
				"KHR_materials_specular":{
					"specularFactor":0
				}
			},
			"name":"mat_2",
			"pbrMetallicRoughness":{
				"baseColorFactor":[
					0.8307698965072632,
					0.8307698965072632,
					0.8307698965072632,
					1
				],
				"metallicFactor":0.5,
				"roughnessFactor":0.5
			}
		}
	],
	"meshes":[
		{
			"name":"Part__Feature019",
			"primitives":[
				{
					"attributes":{
						"POSITION":0,
						"NORMAL":1
					},
					"indices":2,
					"material":0
				},
				{
					"attributes":{
						"POSITION":3,
						"NORMAL":4
					},
					"indices":5,
					"material":0
				}
			]
		}
	],
	"accessors":[
		{
			"bufferView":0,
			"componentType":5126,
			"count":265053,
			"max":[
				0.06774388998746872,
				-5.299229997035582e-07,
				0.05793618783354759
			],
			"min":[
				-0.06774138659238815,
				-0.12424369901418686,
				-0.0579337403178215
			],
			"type":"VEC3"
		},
		{
			"bufferView":1,
			"componentType":5126,
			"count":265053,
			"type":"VEC3"
		},
		{
			"bufferView":2,
			"componentType":5125,
			"count":267528,
			"type":"SCALAR"
		},
		{
			"bufferView":3,
			"componentType":5126,
			"count":158451,
			"max":[
				0.06447499245405197,
				-0.007435500156134367,
				0.04863261803984642
			],
			"min":[
				-0.064429871737957,
				-0.11968769878149033,
				-0.048867758363485336
			],
			"type":"VEC3"
		},
		{
			"bufferView":4,
			"componentType":5126,
			"count":158451,
			"type":"VEC3"
		},
		{
			"bufferView":5,
			"componentType":5125,
			"count":163548,
			"type":"SCALAR"
		}
	],
	"bufferViews":[
		{
			"buffer":0,
			"byteLength":3180636,
			"byteOffset":0,
			"target":34962
		},
		{
			"buffer":0,
			"byteLength":3180636,
			"byteOffset":3180636,
			"target":34962
		},
		{
			"buffer":0,
			"byteLength":1070112,
			"byteOffset":6361272,
			"target":34963
		},
		{
			"buffer":0,
			"byteLength":1901412,
			"byteOffset":7431384,
			"target":34962
		},
		{
			"buffer":0,
			"byteLength":1901412,
			"byteOffset":9332796,
			"target":34962
		},
		{
			"buffer":0,
			"byteLength":654192,
			"byteOffset":11234208,
			"target":34963
		}
	],
	"buffers":[
		{
			"byteLength":11888400,
			"uri":"G1-EDU_Ultimate_B_crotch.bin"
		}
	]
}
