{
	"asset":{
		"generator":"Khronos glTF Blender I/O v4.5.47",
		"version":"2.0"
	},
	"extensionsUsed":[
		"KHR_materials_specular"
	],
	"scene":0,
	"scenes":[
		{
			"name":"Scene",
			"nodes":[
				0
			]
		}
	],
	"nodes":[
		{
			"mesh":0,
			"name":"node32.005"
		}
	],
	"materials":[
		{
			"doubleSided":true,
			"extensions":{
				"KHR_materials_specular":{
					"specularFactor":0
				}
			},
			"name":"mat_2",
			"pbrMetallicRoughness":{
				"baseColorFactor":[
					0.8307698965072632,
					0.8307698965072632,
					0.8307698965072632,
					1
				],
				"metallicFactor":0.5,
				"roughnessFactor":0.5
			}
		}
	],
	"meshes":[
		{
			"name":"Part__Feature032.005",
			"primitives":[
				{
					"attributes":{
						"POSITION":0,
						"NORMAL":1
					},
					"indices":2,
					"material":0
				}
			]
		}
	],
	"accessors":[
		{
			"bufferView":0,
			"componentType":5126,
			"count":289917,
			"max":[
				0.04083650931715965,
				0.051425568759441376,
				0.10618340224027634
			],
			"min":[
				-0.04214930161833763,
				-0.007198571693152189,
				-0.006959139835089445
			],
			"type":"VEC3"
		},
		{
			"bufferView":1,
			"componentType":5126,
			"count":289917,
			"type":"VEC3"
		},
		{
			"bufferView":2,
			"componentType":5125,
			"count":291150,
			"type":"SCALAR"
		}
	],
	"bufferViews":[
		{
			"buffer":0,
			"byteLength":3479004,
			"byteOffset":0,
			"target":34962
		},
		{
			"buffer":0,
			"byteLength":3479004,
			"byteOffset":3479004,
			"target":34962
		},
		{
			"buffer":0,
			"byteLength":1164600,
			"byteOffset":6958008,
			"target":34963
		}
	],
	"buffers":[
		{
			"byteLength":8122608,
			"uri":"G1-EDU_Ultimate_B_right_9.bin"
		}
	]
}
