{
	"asset":{
		"generator":"Khronos glTF Blender I/O v4.3.47",
		"version":"2.0"
	},
	"scene":0,
	"scenes":[
		{
			"name":"Scene",
			"nodes":[
				0
			]
		}
	],
	"nodes":[
		{
			"mesh":0,
			"name":"node63"
		}
	],
	"materials":[
		{
			"doubleSided":true,
			"name":"mat_2",
			"pbrMetallicRoughness":{
				"baseColorFactor":[
					0.8307698965072632,
					0.8307698965072632,
					0.8307698965072632,
					1
				],
				"metallicFactor":0.5,
				"roughnessFactor":0.5
			}
		}
	],
	"meshes":[
		{
			"name":"Part__Feature063",
			"primitives":[
				{
					"attributes":{
						"POSITION":0,
						"NORMAL":1
					},
					"indices":2,
					"material":0
				}
			]
		}
	],
	"accessors":[
		{
			"bufferView":0,
			"componentType":5126,
			"count":397047,
			"max":[
				0.10798379778862,
				0.5199844837188721,
				0.08065568655729294
			],
			"min":[
				-0.10798139870166779,
				-1.4696299786010059e-06,
				-0.06959860771894455
			],
			"type":"VEC3"
		},
		{
			"bufferView":1,
			"componentType":5126,
			"count":397047,
			"type":"VEC3"
		},
		{
			"bufferView":2,
			"componentType":5125,
			"count":404718,
			"type":"SCALAR"
		}
	],
	"bufferViews":[
		{
			"buffer":0,
			"byteLength":4764564,
			"byteOffset":0,
			"target":34962
		},
		{
			"buffer":0,
			"byteLength":4764564,
			"byteOffset":4764564,
			"target":34962
		},
		{
			"buffer":0,
			"byteLength":1618872,
			"byteOffset":9529128,
			"target":34963
		}
	],
	"buffers":[
		{
			"byteLength":11148000,
			"uri":"G1-EDU_Ultimate_B_head_body.bin"
		}
	]
}
