{
	"asset":{
		"generator":"Khronos glTF Blender I/O v4.5.47",
		"version":"2.0"
	},
	"extensionsUsed":[
		"KHR_materials_specular"
	],
	"scene":0,
	"scenes":[
		{
			"name":"Scene",
			"nodes":[
				0
			]
		}
	],
	"nodes":[
		{
			"mesh":0,
			"name":"node56"
		}
	],
	"materials":[
		{
			"doubleSided":true,
			"extensions":{
				"KHR_materials_specular":{
					"specularFactor":0
				}
			},
			"name":"mat_2",
			"pbrMetallicRoughness":{
				"baseColorFactor":[
					0.8307698965072632,
					0.8307698965072632,
					0.8307698965072632,
					1
				],
				"metallicFactor":0.5,
				"roughnessFactor":0.5
			}
		},
		{
			"doubleSided":true,
			"extensions":{
				"KHR_materials_specular":{
					"specularFactor":0
				}
			},
			"name":"Part__Feature074",
			"pbrMetallicRoughness":{
				"baseColorFactor":[
					0.67843097448349,
					0.7098039984703064,
					0.7411760091781616,
					1
				],
				"metallicFactor":0,
				"roughnessFactor":0.5
			}
		},
		{
			"doubleSided":true,
			"extensions":{
				"KHR_materials_specular":{
					"specularFactor":0
				}
			},
			"name":"Part__Feature075",
			"pbrMetallicRoughness":{
				"baseColorFactor":[
					0.67843097448349,
					0.7098039984703064,
					0.7411760091781616,
					1
				],
				"metallicFactor":0,
				"roughnessFactor":0.5
			}
		}
	],
	"meshes":[
		{
			"name":"Part__Feature056",
			"primitives":[
				{
					"attributes":{
						"POSITION":0,
						"NORMAL":1
					},
					"indices":2,
					"material":0
				},
				{
					"attributes":{
						"POSITION":3,
						"NORMAL":4
					},
					"indices":5,
					"material":1
				},
				{
					"attributes":{
						"POSITION":6,
						"NORMAL":7
					},
					"indices":8,
					"material":2
				}
			]
		}
	],
	"accessors":[
		{
			"bufferView":0,
			"componentType":5126,
			"count":224754,
			"max":[
				0.04299098625779152,
				0.06280744820833206,
				0.10999886691570282
			],
			"min":[
				-0.043009236454963684,
				-0.024778982624411583,
				-6.229056452866644e-06
			],
			"type":"VEC3"
		},
		{
			"bufferView":1,
			"componentType":5126,
			"count":224754,
			"type":"VEC3"
		},
		{
			"bufferView":2,
			"componentType":5125,
			"count":227040,
			"type":"SCALAR"
		},
		{
			"bufferView":3,
			"componentType":5126,
			"count":88759,
			"max":[
				0.012747447937726974,
				0.05418544262647629,
				0.14044179022312164
			],
			"min":[
				-0.010198941454291344,
				0.03554268926382065,
				0.09501118957996368
			],
			"type":"VEC3"
		},
		{
			"bufferView":4,
			"componentType":5126,
			"count":88759,
			"type":"VEC3"
		},
		{
			"bufferView":5,
			"componentType":5125,
			"count":88899,
			"type":"SCALAR"
		},
		{
			"bufferView":6,
			"componentType":5126,
			"count":41008,
			"max":[
				0.01133562158793211,
				0.05624782666563988,
				0.1383969485759735
			],
			"min":[
				-0.0086729247123003,
				0.03950978070497513,
				0.08446906507015228
			],
			"type":"VEC3"
		},
		{
			"bufferView":7,
			"componentType":5126,
			"count":41008,
			"type":"VEC3"
		},
		{
			"bufferView":8,
			"componentType":5123,
			"count":41166,
			"type":"SCALAR"
		}
	],
	"bufferViews":[
		{
			"buffer":0,
			"byteLength":2697048,
			"byteOffset":0,
			"target":34962
		},
		{
			"buffer":0,
			"byteLength":2697048,
			"byteOffset":2697048,
			"target":34962
		},
		{
			"buffer":0,
			"byteLength":908160,
			"byteOffset":5394096,
			"target":34963
		},
		{
			"buffer":0,
			"byteLength":1065108,
			"byteOffset":6302256,
			"target":34962
		},
		{
			"buffer":0,
			"byteLength":1065108,
			"byteOffset":7367364,
			"target":34962
		},
		{
			"buffer":0,
			"byteLength":355596,
			"byteOffset":8432472,
			"target":34963
		},
		{
			"buffer":0,
			"byteLength":492096,
			"byteOffset":8788068,
			"target":34962
		},
		{
			"buffer":0,
			"byteLength":492096,
			"byteOffset":9280164,
			"target":34962
		},
		{
			"buffer":0,
			"byteLength":82332,
			"byteOffset":9772260,
			"target":34963
		}
	],
	"buffers":[
		{
			"byteLength":9854592,
			"uri":"G1-EDU_Ultimate_B_left_8.bin"
		}
	]
}
