{
	"asset":{
		"generator":"Khronos glTF Blender I/O v4.5.47",
		"version":"2.0"
	},
	"extensionsUsed":[
		"KHR_materials_specular"
	],
	"scene":0,
	"scenes":[
		{
			"name":"Scene",
			"nodes":[
				0
			]
		}
	],
	"nodes":[
		{
			"mesh":0,
			"name":"node45",
			"rotation":[
				0,
				0.7071068286895752,
				0,
				0.7071068286895752
			]
		}
	],
	"materials":[
		{
			"doubleSided":true,
			"extensions":{
				"KHR_materials_specular":{
					"specularFactor":0
				}
			},
			"name":"mat_2",
			"pbrMetallicRoughness":{
				"baseColorFactor":[
					0.8307698965072632,
					0.8307698965072632,
					0.8307698965072632,
					1
				],
				"metallicFactor":0.5,
				"roughnessFactor":0.5
			}
		}
	],
	"meshes":[
		{
			"name":"Part__Feature045",
			"primitives":[
				{
					"attributes":{
						"POSITION":0,
						"NORMAL":1
					},
					"indices":2,
					"material":0
				}
			]
		}
	],
	"accessors":[
		{
			"bufferView":0,
			"componentType":5126,
			"count":5336,
			"max":[
				0.02856253832578659,
				0.02850375324487686,
				0.02847925014793873
			],
			"min":[
				-0.07446177303791046,
				-0.0284986961632967,
				-0.028522221371531487
			],
			"type":"VEC3"
		},
		{
			"bufferView":1,
			"componentType":5126,
			"count":5336,
			"type":"VEC3"
		},
		{
			"bufferView":2,
			"componentType":5123,
			"count":5676,
			"type":"SCALAR"
		}
	],
	"bufferViews":[
		{
			"buffer":0,
			"byteLength":64032,
			"byteOffset":0,
			"target":34962
		},
		{
			"buffer":0,
			"byteLength":64032,
			"byteOffset":64032,
			"target":34962
		},
		{
			"buffer":0,
			"byteLength":11352,
			"byteOffset":128064,
			"target":34963
		}
	],
	"buffers":[
		{
			"byteLength":139416,
			"uri":"G1-EDU_Ultimate_B_right_6.bin"
		}
	]
}
