{
	"asset":{
		"generator":"Khronos glTF Blender I/O v4.3.47",
		"version":"2.0"
	},
	"scene":0,
	"scenes":[
		{
			"name":"Scene",
			"nodes":[
				0
			]
		}
	],
	"nodes":[
		{
			"mesh":0,
			"name":"node46"
		}
	],
	"materials":[
		{
			"doubleSided":true,
			"name":"mat_2",
			"pbrMetallicRoughness":{
				"baseColorFactor":[
					0.8307698965072632,
					0.8307698965072632,
					0.8307698965072632,
					1
				],
				"metallicFactor":0.5,
				"roughnessFactor":0.5
			}
		}
	],
	"meshes":[
		{
			"name":"Part__Feature046.001",
			"primitives":[
				{
					"attributes":{
						"POSITION":0,
						"NORMAL":1
					},
					"indices":2,
					"material":0
				}
			]
		}
	],
	"accessors":[
		{
			"bufferView":0,
			"componentType":5126,
			"count":153164,
			"max":[
				0.12344969809055328,
				0.053431738168001175,
				0.03102736920118332
			],
			"min":[
				-0.007863759063184261,
				-0.027359960600733757,
				-0.031021589413285255
			],
			"type":"VEC3"
		},
		{
			"bufferView":1,
			"componentType":5126,
			"count":153164,
			"type":"VEC3"
		},
		{
			"bufferView":2,
			"componentType":5125,
			"count":155736,
			"type":"SCALAR"
		}
	],
	"bufferViews":[
		{
			"buffer":0,
			"byteLength":1837968,
			"byteOffset":0,
			"target":34962
		},
		{
			"buffer":0,
			"byteLength":1837968,
			"byteOffset":1837968,
			"target":34962
		},
		{
			"buffer":0,
			"byteLength":622944,
			"byteOffset":3675936,
			"target":34963
		}
	],
	"buffers":[
		{
			"byteLength":4298880,
			"uri":"G1-EDU_Ultimate_B_left_1.bin"
		}
	]
}
