{
	"asset":{
		"generator":"Khronos glTF Blender I/O v4.5.47",
		"version":"2.0"
	},
	"extensionsUsed":[
		"KHR_materials_specular"
	],
	"scene":0,
	"scenes":[
		{
			"name":"Scene",
			"nodes":[
				0
			]
		}
	],
	"nodes":[
		{
			"mesh":0,
			"name":"node21.001"
		}
	],
	"materials":[
		{
			"doubleSided":true,
			"extensions":{
				"KHR_materials_specular":{
					"specularFactor":0
				}
			},
			"name":"mat_2",
			"pbrMetallicRoughness":{
				"baseColorFactor":[
					0.8307698965072632,
					0.8307698965072632,
					0.8307698965072632,
					1
				],
				"metallicFactor":0.5,
				"roughnessFactor":0.5
			}
		}
	],
	"meshes":[
		{
			"name":"Part__Feature021.001",
			"primitives":[
				{
					"attributes":{
						"POSITION":0,
						"NORMAL":1
					},
					"indices":2,
					"material":0
				}
			]
		}
	],
	"accessors":[
		{
			"bufferView":0,
			"componentType":5126,
			"count":123606,
			"max":[
				0.03784971311688423,
				0.01625874452292919,
				0.11903802305459976
			],
			"min":[
				-0.037676285952329636,
				-0.10015427321195602,
				-0.08024221658706665
			],
			"type":"VEC3"
		},
		{
			"bufferView":1,
			"componentType":5126,
			"count":123606,
			"type":"VEC3"
		},
		{
			"bufferView":2,
			"componentType":5125,
			"count":124062,
			"type":"SCALAR"
		}
	],
	"bufferViews":[
		{
			"buffer":0,
			"byteLength":1483272,
			"byteOffset":0,
			"target":34962
		},
		{
			"buffer":0,
			"byteLength":1483272,
			"byteOffset":1483272,
			"target":34962
		},
		{
			"buffer":0,
			"byteLength":496248,
			"byteOffset":2966544,
			"target":34963
		}
	],
	"buffers":[
		{
			"byteLength":3462792,
			"uri":"G1-EDU_Ultimate_B_Leg_R_4.bin"
		}
	]
}
