{
	"asset":{
		"generator":"Khronos glTF Blender I/O v4.5.47",
		"version":"2.0"
	},
	"extensionsUsed":[
		"KHR_materials_specular"
	],
	"scene":0,
	"scenes":[
		{
			"name":"Scene",
			"nodes":[
				0
			]
		}
	],
	"nodes":[
		{
			"mesh":0,
			"name":"node16"
		}
	],
	"materials":[
		{
			"doubleSided":true,
			"extensions":{
				"KHR_materials_specular":{
					"specularFactor":0
				}
			},
			"name":"mat_2",
			"pbrMetallicRoughness":{
				"baseColorFactor":[
					0.8307698965072632,
					0.8307698965072632,
					0.8307698965072632,
					1
				],
				"metallicFactor":0.5,
				"roughnessFactor":0.5
			}
		}
	],
	"meshes":[
		{
			"name":"Part__Feature016",
			"primitives":[
				{
					"attributes":{
						"POSITION":0,
						"NORMAL":1
					},
					"indices":2,
					"material":0
				}
			]
		}
	],
	"accessors":[
		{
			"bufferView":0,
			"componentType":5126,
			"count":535639,
			"max":[
				0.035846393555402756,
				0.040011145174503326,
				0.06312151998281479
			],
			"min":[
				-0.035849813371896744,
				-0.28350284695625305,
				-0.16696199774742126
			],
			"type":"VEC3"
		},
		{
			"bufferView":1,
			"componentType":5126,
			"count":535639,
			"type":"VEC3"
		},
		{
			"bufferView":2,
			"componentType":5125,
			"count":539757,
			"type":"SCALAR"
		}
	],
	"bufferViews":[
		{
			"buffer":0,
			"byteLength":6427668,
			"byteOffset":0,
			"target":34962
		},
		{
			"buffer":0,
			"byteLength":6427668,
			"byteOffset":6427668,
			"target":34962
		},
		{
			"buffer":0,
			"byteLength":2159028,
			"byteOffset":12855336,
			"target":34963
		}
	],
	"buffers":[
		{
			"byteLength":15014364,
			"uri":"G1-EDU_Ultimate_B_Leg_L_3.bin"
		}
	]
}
