{
	"asset":{
		"generator":"Khronos glTF Blender I/O v4.5.47",
		"version":"2.0"
	},
	"extensionsUsed":[
		"KHR_materials_specular"
	],
	"scene":0,
	"scenes":[
		{
			"name":"Scene",
			"nodes":[
				0
			]
		}
	],
	"nodes":[
		{
			"mesh":0,
			"name":"node35"
		}
	],
	"materials":[
		{
			"doubleSided":true,
			"extensions":{
				"KHR_materials_specular":{
					"specularFactor":0
				}
			},
			"name":"mat_2",
			"pbrMetallicRoughness":{
				"baseColorFactor":[
					0.8307698965072632,
					0.8307698965072632,
					0.8307698965072632,
					1
				],
				"metallicFactor":0.5,
				"roughnessFactor":0.5
			}
		}
	],
	"meshes":[
		{
			"name":"Part__Feature035.001",
			"primitives":[
				{
					"attributes":{
						"POSITION":0,
						"NORMAL":1
					},
					"indices":2,
					"material":0
				}
			]
		}
	],
	"accessors":[
		{
			"bufferView":0,
			"componentType":5126,
			"count":55729,
			"max":[
				0.02998404949903488,
				0.034473299980163574,
				0.05699889361858368
			],
			"min":[
				-0.03001098893582821,
				-0.03531479090452194,
				-0.051628872752189636
			],
			"type":"VEC3"
		},
		{
			"bufferView":1,
			"componentType":5126,
			"count":55729,
			"type":"VEC3"
		},
		{
			"bufferView":2,
			"componentType":5123,
			"count":56889,
			"type":"SCALAR"
		}
	],
	"bufferViews":[
		{
			"buffer":0,
			"byteLength":668748,
			"byteOffset":0,
			"target":34962
		},
		{
			"buffer":0,
			"byteLength":668748,
			"byteOffset":668748,
			"target":34962
		},
		{
			"buffer":0,
			"byteLength":113778,
			"byteOffset":1337496,
			"target":34963
		}
	],
	"buffers":[
		{
			"byteLength":1451276,
			"uri":"G1-EDU_Ultimate_B_right_5.bin"
		}
	]
}
