{
	"asset":{
		"generator":"Khronos glTF Blender I/O v4.3.47",
		"version":"2.0"
	},
	"extensionsUsed":[
		"KHR_materials_specular"
	],
	"scene":0,
	"scenes":[
		{
			"name":"Scene",
			"nodes":[
				0
			]
		}
	],
	"nodes":[
		{
			"mesh":0,
			"name":"node36"
		}
	],
	"materials":[
		{
			"doubleSided":true,
			"extensions":{
				"KHR_materials_specular":{
					"specularFactor":0
				}
			},
			"name":"mat_2",
			"pbrMetallicRoughness":{
				"baseColorFactor":[
					0.8307698965072632,
					0.8307698965072632,
					0.8307698965072632,
					1
				],
				"metallicFactor":0.5,
				"roughnessFactor":0.5
			}
		}
	],
	"meshes":[
		{
			"name":"Part__Feature036.002",
			"primitives":[
				{
					"attributes":{
						"POSITION":0,
						"NORMAL":1
					},
					"indices":2,
					"material":0
				}
			]
		}
	],
	"accessors":[
		{
			"bufferView":0,
			"componentType":5126,
			"count":26101,
			"max":[
				0.03822571411728859,
				0.11211766302585602,
				0.048382148146629333
			],
			"min":[
				-0.03261268883943558,
				-0.03315969556570053,
				-0.032804906368255615
			],
			"type":"VEC3"
		},
		{
			"bufferView":1,
			"componentType":5126,
			"count":26101,
			"type":"VEC3"
		},
		{
			"bufferView":2,
			"componentType":5123,
			"count":27684,
			"type":"SCALAR"
		}
	],
	"bufferViews":[
		{
			"buffer":0,
			"byteLength":313212,
			"byteOffset":0,
			"target":34962
		},
		{
			"buffer":0,
			"byteLength":313212,
			"byteOffset":313212,
			"target":34962
		},
		{
			"buffer":0,
			"byteLength":55368,
			"byteOffset":626424,
			"target":34963
		}
	],
	"buffers":[
		{
			"byteLength":681792,
			"uri":"G1-EDU_Ultimate_B_right_3.bin"
		}
	]
}
