{
	"asset":{
		"generator":"Khronos glTF Blender I/O v4.5.47",
		"version":"2.0"
	},
	"extensionsUsed":[
		"KHR_materials_specular"
	],
	"scene":0,
	"scenes":[
		{
			"name":"Scene",
			"nodes":[
				0
			]
		}
	],
	"nodes":[
		{
			"mesh":0,
			"name":"node56"
		}
	],
	"materials":[
		{
			"doubleSided":true,
			"extensions":{
				"KHR_materials_specular":{
					"specularFactor":0
				}
			},
			"name":"mat_2",
			"pbrMetallicRoughness":{
				"baseColorFactor":[
					0.8307698965072632,
					0.8307698965072632,
					0.8307698965072632,
					1
				],
				"metallicFactor":0.5,
				"roughnessFactor":0.5
			}
		}
	],
	"meshes":[
		{
			"name":"Part__Feature056",
			"primitives":[
				{
					"attributes":{
						"POSITION":0,
						"NORMAL":1
					},
					"indices":2,
					"material":0
				}
			]
		}
	],
	"accessors":[
		{
			"bufferView":0,
			"componentType":5126,
			"count":354558,
			"max":[
				0.04299097880721092,
				0.06280744075775146,
				0.14044180512428284
			],
			"min":[
				-0.04300922155380249,
				-0.024778960272669792,
				-6.229060090845451e-06
			],
			"type":"VEC3"
		},
		{
			"bufferView":1,
			"componentType":5126,
			"count":354558,
			"type":"VEC3"
		},
		{
			"bufferView":2,
			"componentType":5125,
			"count":357105,
			"type":"SCALAR"
		}
	],
	"bufferViews":[
		{
			"buffer":0,
			"byteLength":4254696,
			"byteOffset":0,
			"target":34962
		},
		{
			"buffer":0,
			"byteLength":4254696,
			"byteOffset":4254696,
			"target":34962
		},
		{
			"buffer":0,
			"byteLength":1428420,
			"byteOffset":8509392,
			"target":34963
		}
	],
	"buffers":[
		{
			"byteLength":9937812,
			"uri":"G1-EDU_Ultimate_B_left_8.bin"
		}
	]
}
