{
	"asset":{
		"generator":"Khronos glTF Blender I/O v4.5.47",
		"version":"2.0"
	},
	"extensionsUsed":[
		"KHR_materials_specular"
	],
	"scene":0,
	"scenes":[
		{
			"name":"Scene",
			"nodes":[
				0
			]
		}
	],
	"nodes":[
		{
			"mesh":0,
			"name":"node30.001",
			"rotation":[
				0,
				0.7071066498756409,
				0,
				0.70710688829422
			]
		}
	],
	"materials":[
		{
			"doubleSided":true,
			"extensions":{
				"KHR_materials_specular":{
					"specularFactor":0
				}
			},
			"name":"mat_2.001",
			"pbrMetallicRoughness":{
				"baseColorFactor":[
					0.8307698965072632,
					0.8307698965072632,
					0.8307698965072632,
					1
				],
				"metallicFactor":0.5,
				"roughnessFactor":0.5
			}
		},
		{
			"doubleSided":true,
			"extensions":{
				"KHR_materials_specular":{
					"specularFactor":0
				}
			},
			"name":"mat_2",
			"pbrMetallicRoughness":{
				"baseColorFactor":[
					0.8307698965072632,
					0.8307698965072632,
					0.8307698965072632,
					1
				],
				"metallicFactor":0.5,
				"roughnessFactor":0.5
			}
		}
	],
	"meshes":[
		{
			"name":"Part__Feature030.002",
			"primitives":[
				{
					"attributes":{
						"POSITION":0,
						"NORMAL":1,
						"TEXCOORD_0":2
					},
					"indices":3,
					"material":0
				},
				{
					"attributes":{
						"POSITION":4,
						"NORMAL":5,
						"TEXCOORD_0":6
					},
					"indices":7,
					"material":1
				}
			]
		}
	],
	"accessors":[
		{
			"bufferView":0,
			"componentType":5126,
			"count":13584,
			"max":[
				0.05401252955198288,
				-0.06232953071594238,
				0.038923848420381546
			],
			"min":[
				-0.03398745879530907,
				-0.11793160438537598,
				-0.041076358407735825
			],
			"type":"VEC3"
		},
		{
			"bufferView":1,
			"componentType":5126,
			"count":13584,
			"type":"VEC3"
		},
		{
			"bufferView":2,
			"componentType":5126,
			"count":13584,
			"type":"VEC2"
		},
		{
			"bufferView":3,
			"componentType":5123,
			"count":15156,
			"type":"SCALAR"
		},
		{
			"bufferView":4,
			"componentType":5126,
			"count":35531,
			"max":[
				0.06130087003111839,
				0.046957310289144516,
				0.04894696921110153
			],
			"min":[
				-0.04514782875776291,
				-0.12296999990940094,
				-0.04894690960645676
			],
			"type":"VEC3"
		},
		{
			"bufferView":5,
			"componentType":5126,
			"count":35531,
			"type":"VEC3"
		},
		{
			"bufferView":6,
			"componentType":5126,
			"count":35531,
			"type":"VEC2"
		},
		{
			"bufferView":7,
			"componentType":5123,
			"count":35928,
			"type":"SCALAR"
		}
	],
	"bufferViews":[
		{
			"buffer":0,
			"byteLength":163008,
			"byteOffset":0,
			"target":34962
		},
		{
			"buffer":0,
			"byteLength":163008,
			"byteOffset":163008,
			"target":34962
		},
		{
			"buffer":0,
			"byteLength":108672,
			"byteOffset":326016,
			"target":34962
		},
		{
			"buffer":0,
			"byteLength":30312,
			"byteOffset":434688,
			"target":34963
		},
		{
			"buffer":0,
			"byteLength":426372,
			"byteOffset":465000,
			"target":34962
		},
		{
			"buffer":0,
			"byteLength":426372,
			"byteOffset":891372,
			"target":34962
		},
		{
			"buffer":0,
			"byteLength":284248,
			"byteOffset":1317744,
			"target":34962
		},
		{
			"buffer":0,
			"byteLength":71856,
			"byteOffset":1601992,
			"target":34963
		}
	],
	"buffers":[
		{
			"byteLength":1673848,
			"uri":"G1-EDU_Ultimate_B_Leg_L_2_1.bin"
		}
	]
}
