{
	"asset":{
		"generator":"Khronos glTF Blender I/O v4.5.47",
		"version":"2.0"
	},
	"extensionsUsed":[
		"KHR_materials_specular"
	],
	"scene":0,
	"scenes":[
		{
			"name":"Scene",
			"nodes":[
				0
			]
		}
	],
	"nodes":[
		{
			"mesh":0,
			"name":"node32.005"
		}
	],
	"materials":[
		{
			"doubleSided":true,
			"extensions":{
				"KHR_materials_specular":{
					"specularFactor":0
				}
			},
			"name":"mat_2",
			"pbrMetallicRoughness":{
				"baseColorFactor":[
					0.8307698965072632,
					0.8307698965072632,
					0.8307698965072632,
					1
				],
				"metallicFactor":0.5,
				"roughnessFactor":0.5
			}
		},
		{
			"doubleSided":true,
			"extensions":{
				"KHR_materials_specular":{
					"specularFactor":0
				}
			},
			"name":"Part__Feature033",
			"pbrMetallicRoughness":{
				"baseColorFactor":[
					0.67843097448349,
					0.7098039984703064,
					0.7411760091781616,
					1
				],
				"metallicFactor":0,
				"roughnessFactor":0.5
			}
		},
		{
			"doubleSided":true,
			"extensions":{
				"KHR_materials_specular":{
					"specularFactor":0
				}
			},
			"name":"Part__Feature041",
			"pbrMetallicRoughness":{
				"baseColorFactor":[
					0.67843097448349,
					0.7098039984703064,
					0.7411760091781616,
					1
				],
				"metallicFactor":0,
				"roughnessFactor":0.5
			}
		},
		{
			"doubleSided":true,
			"extensions":{
				"KHR_materials_specular":{
					"specularFactor":0
				}
			},
			"name":"Part__Feature042",
			"pbrMetallicRoughness":{
				"baseColorFactor":[
					0.67843097448349,
					0.7098039984703064,
					0.7411760091781616,
					1
				],
				"metallicFactor":0,
				"roughnessFactor":0.5
			}
		},
		{
			"doubleSided":true,
			"extensions":{
				"KHR_materials_specular":{
					"specularFactor":0
				}
			},
			"name":"Part__Feature043",
			"pbrMetallicRoughness":{
				"baseColorFactor":[
					0.67843097448349,
					0.7098039984703064,
					0.7411760091781616,
					1
				],
				"metallicFactor":0,
				"roughnessFactor":0.5
			}
		},
		{
			"doubleSided":true,
			"extensions":{
				"KHR_materials_specular":{
					"specularFactor":0
				}
			},
			"name":"Part__Feature044",
			"pbrMetallicRoughness":{
				"baseColorFactor":[
					0.67843097448349,
					0.7098039984703064,
					0.7411760091781616,
					1
				],
				"metallicFactor":0,
				"roughnessFactor":0.5
			}
		}
	],
	"meshes":[
		{
			"name":"Part__Feature032.005",
			"primitives":[
				{
					"attributes":{
						"POSITION":0,
						"NORMAL":1
					},
					"indices":2,
					"material":0
				},
				{
					"attributes":{
						"POSITION":3,
						"NORMAL":4
					},
					"indices":5,
					"material":1
				},
				{
					"attributes":{
						"POSITION":6,
						"NORMAL":7
					},
					"indices":8,
					"material":2
				},
				{
					"attributes":{
						"POSITION":9,
						"NORMAL":10
					},
					"indices":11,
					"material":3
				},
				{
					"attributes":{
						"POSITION":12,
						"NORMAL":13
					},
					"indices":14,
					"material":4
				},
				{
					"attributes":{
						"POSITION":15,
						"NORMAL":16
					},
					"indices":17,
					"material":5
				}
			]
		}
	],
	"accessors":[
		{
			"bufferView":0,
			"componentType":5126,
			"count":13858,
			"max":[
				0.04083650931715965,
				0.02981244958937168,
				0.07964210957288742
			],
			"min":[
				0.014848940074443817,
				-0.007198630832135677,
				-0.006959139835089445
			],
			"type":"VEC3"
		},
		{
			"bufferView":1,
			"componentType":5126,
			"count":13858,
			"type":"VEC3"
		},
		{
			"bufferView":2,
			"componentType":5123,
			"count":14244,
			"type":"SCALAR"
		},
		{
			"bufferView":3,
			"componentType":5126,
			"count":13894,
			"max":[
				-0.016162030398845673,
				0.02998805046081543,
				0.07964544743299484
			],
			"min":[
				-0.04214930161833763,
				-0.007022975943982601,
				-0.006955920718610287
			],
			"type":"VEC3"
		},
		{
			"bufferView":4,
			"componentType":5126,
			"count":13894,
			"type":"VEC3"
		},
		{
			"bufferView":5,
			"componentType":5123,
			"count":14244,
			"type":"SCALAR"
		},
		{
			"bufferView":6,
			"componentType":5126,
			"count":41101,
			"max":[
				-0.019446730613708496,
				0.04866325110197067,
				0.10505609959363937
			],
			"min":[
				-0.039207328110933304,
				0.007880686782300472,
				0.06557393074035645
			],
			"type":"VEC3"
		},
		{
			"bufferView":7,
			"componentType":5126,
			"count":41101,
			"type":"VEC3"
		},
		{
			"bufferView":8,
			"componentType":5123,
			"count":41244,
			"type":"SCALAR"
		},
		{
			"bufferView":9,
			"componentType":5126,
			"count":89968,
			"max":[
				-0.017879899591207504,
				0.05142562836408615,
				0.10618340224027634
			],
			"min":[
				-0.040808260440826416,
				0.019642649218440056,
				0.06551002711057663
			],
			"type":"VEC3"
		},
		{
			"bufferView":10,
			"componentType":5126,
			"count":89968,
			"type":"VEC3"
		},
		{
			"bufferView":11,
			"componentType":5125,
			"count":90114,
			"type":"SCALAR"
		},
		{
			"bufferView":12,
			"componentType":5126,
			"count":41010,
			"max":[
				0.0375516414642334,
				0.048487961292266846,
				0.10505270212888718
			],
			"min":[
				0.01779072917997837,
				0.007705270778387785,
				0.0655706524848938
			],
			"type":"VEC3"
		},
		{
			"bufferView":13,
			"componentType":5126,
			"count":41010,
			"type":"VEC3"
		},
		{
			"bufferView":14,
			"componentType":5123,
			"count":41190,
			"type":"SCALAR"
		},
		{
			"bufferView":15,
			"componentType":5126,
			"count":89973,
			"max":[
				0.039118338376283646,
				0.05125020816922188,
				0.1061801016330719
			],
			"min":[
				0.016189750283956528,
				0.019467050209641457,
				0.06550674885511398
			],
			"type":"VEC3"
		},
		{
			"bufferView":16,
			"componentType":5126,
			"count":89973,
			"type":"VEC3"
		},
		{
			"bufferView":17,
			"componentType":5125,
			"count":90114,
			"type":"SCALAR"
		}
	],
	"bufferViews":[
		{
			"buffer":0,
			"byteLength":166296,
			"byteOffset":0,
			"target":34962
		},
		{
			"buffer":0,
			"byteLength":166296,
			"byteOffset":166296,
			"target":34962
		},
		{
			"buffer":0,
			"byteLength":28488,
			"byteOffset":332592,
			"target":34963
		},
		{
			"buffer":0,
			"byteLength":166728,
			"byteOffset":361080,
			"target":34962
		},
		{
			"buffer":0,
			"byteLength":166728,
			"byteOffset":527808,
			"target":34962
		},
		{
			"buffer":0,
			"byteLength":28488,
			"byteOffset":694536,
			"target":34963
		},
		{
			"buffer":0,
			"byteLength":493212,
			"byteOffset":723024,
			"target":34962
		},
		{
			"buffer":0,
			"byteLength":493212,
			"byteOffset":1216236,
			"target":34962
		},
		{
			"buffer":0,
			"byteLength":82488,
			"byteOffset":1709448,
			"target":34963
		},
		{
			"buffer":0,
			"byteLength":1079616,
			"byteOffset":1791936,
			"target":34962
		},
		{
			"buffer":0,
			"byteLength":1079616,
			"byteOffset":2871552,
			"target":34962
		},
		{
			"buffer":0,
			"byteLength":360456,
			"byteOffset":3951168,
			"target":34963
		},
		{
			"buffer":0,
			"byteLength":492120,
			"byteOffset":4311624,
			"target":34962
		},
		{
			"buffer":0,
			"byteLength":492120,
			"byteOffset":4803744,
			"target":34962
		},
		{
			"buffer":0,
			"byteLength":82380,
			"byteOffset":5295864,
			"target":34963
		},
		{
			"buffer":0,
			"byteLength":1079676,
			"byteOffset":5378244,
			"target":34962
		},
		{
			"buffer":0,
			"byteLength":1079676,
			"byteOffset":6457920,
			"target":34962
		},
		{
			"buffer":0,
			"byteLength":360456,
			"byteOffset":7537596,
			"target":34963
		}
	],
	"buffers":[
		{
			"byteLength":7898052,
			"uri":"G1-EDU_Ultimate_B_right_9.bin"
		}
	]
}
