{
	"asset":{
		"generator":"Khronos glTF Blender I/O v4.5.47",
		"version":"2.0"
	},
	"extensionsUsed":[
		"KHR_materials_specular"
	],
	"scene":0,
	"scenes":[
		{
			"name":"Scene",
			"nodes":[
				0
			]
		}
	],
	"nodes":[
		{
			"mesh":0,
			"name":"node69",
			"rotation":[
				0,
				0.7071068286895752,
				0,
				0.7071068286895752
			]
		}
	],
	"materials":[
		{
			"doubleSided":true,
			"extensions":{
				"KHR_materials_specular":{
					"specularFactor":0
				}
			},
			"name":"mat_2",
			"pbrMetallicRoughness":{
				"baseColorFactor":[
					0.8307698965072632,
					0.8307698965072632,
					0.8307698965072632,
					1
				],
				"metallicFactor":0.5,
				"roughnessFactor":0.5
			}
		}
	],
	"meshes":[
		{
			"name":"Part__Feature069",
			"primitives":[
				{
					"attributes":{
						"POSITION":0,
						"NORMAL":1
					},
					"indices":2,
					"material":0
				}
			]
		}
	],
	"accessors":[
		{
			"bufferView":0,
			"componentType":5126,
			"count":87580,
			"max":[
				0.04068727418780327,
				0.033499982208013535,
				-2.726912498474121e-06
			],
			"min":[
				-0.02861282229423523,
				-0.07929501682519913,
				-0.09888230264186859
			],
			"type":"VEC3"
		},
		{
			"bufferView":1,
			"componentType":5126,
			"count":87580,
			"type":"VEC3"
		},
		{
			"bufferView":2,
			"componentType":5125,
			"count":89646,
			"type":"SCALAR"
		}
	],
	"bufferViews":[
		{
			"buffer":0,
			"byteLength":1050960,
			"byteOffset":0,
			"target":34962
		},
		{
			"buffer":0,
			"byteLength":1050960,
			"byteOffset":1050960,
			"target":34962
		},
		{
			"buffer":0,
			"byteLength":358584,
			"byteOffset":2101920,
			"target":34963
		}
	],
	"buffers":[
		{
			"byteLength":2460504,
			"uri":"G1-EDU_Ultimate_B_Leg_R_1.bin"
		}
	]
}
