{
	"asset":{
		"generator":"Khronos glTF Blender I/O v4.5.47",
		"version":"2.0"
	},
	"extensionsUsed":[
		"KHR_materials_specular"
	],
	"scene":0,
	"scenes":[
		{
			"name":"Scene",
			"nodes":[
				0
			]
		}
	],
	"nodes":[
		{
			"mesh":0,
			"name":"node0"
		}
	],
	"materials":[
		{
			"doubleSided":true,
			"extensions":{
				"KHR_materials_specular":{
					"specularFactor":0
				}
			},
			"name":"mat_2",
			"pbrMetallicRoughness":{
				"baseColorFactor":[
					0.8307698965072632,
					0.8307698965072632,
					0.8307698965072632,
					1
				],
				"metallicFactor":0.5,
				"roughnessFactor":0.5
			}
		}
	],
	"meshes":[
		{
			"name":"Part__Feature",
			"primitives":[
				{
					"attributes":{
						"POSITION":0,
						"NORMAL":1
					},
					"indices":2,
					"material":0
				}
			]
		}
	],
	"accessors":[
		{
			"bufferView":0,
			"componentType":5126,
			"count":19184,
			"max":[
				0.03286122903227806,
				0.029682209715247154,
				0.1431892067193985
			],
			"min":[
				-0.033134158700704575,
				-0.04599982127547264,
				-0.029823601245880127
			],
			"type":"VEC3"
		},
		{
			"bufferView":1,
			"componentType":5126,
			"count":19184,
			"type":"VEC3"
		},
		{
			"bufferView":2,
			"componentType":5123,
			"count":20052,
			"type":"SCALAR"
		}
	],
	"bufferViews":[
		{
			"buffer":0,
			"byteLength":230208,
			"byteOffset":0,
			"target":34962
		},
		{
			"buffer":0,
			"byteLength":230208,
			"byteOffset":230208,
			"target":34962
		},
		{
			"buffer":0,
			"byteLength":40104,
			"byteOffset":460416,
			"target":34963
		}
	],
	"buffers":[
		{
			"byteLength":500520,
			"uri":"G1-EDU_Ultimate_B_left_4.bin"
		}
	]
}
