{
	"asset":{
		"generator":"Khronos glTF Blender I/O v4.5.47",
		"version":"2.0"
	},
	"extensionsUsed":[
		"KHR_materials_specular"
	],
	"scene":0,
	"scenes":[
		{
			"name":"Scene",
			"nodes":[
				0
			]
		}
	],
	"nodes":[
		{
			"mesh":0,
			"name":"node66",
			"translation":[
				0,
				0,
				-0.009878999553620815
			]
		}
	],
	"materials":[
		{
			"doubleSided":true,
			"extensions":{
				"KHR_materials_specular":{
					"specularFactor":0
				}
			},
			"name":"mat_2",
			"pbrMetallicRoughness":{
				"baseColorFactor":[
					0.8307698965072632,
					0.8307698965072632,
					0.8307698965072632,
					1
				],
				"metallicFactor":0.5,
				"roughnessFactor":0.5
			}
		}
	],
	"meshes":[
		{
			"name":"Part__Feature066",
			"primitives":[
				{
					"attributes":{
						"POSITION":0,
						"NORMAL":1
					},
					"indices":2,
					"material":0
				}
			]
		}
	],
	"accessors":[
		{
			"bufferView":0,
			"componentType":5126,
			"count":88015,
			"max":[
				0.0988805890083313,
				0.03349940851330757,
				0.03849175572395325
			],
			"min":[
				9.941568350768648e-07,
				-0.07929554581642151,
				-0.030808312818408012
			],
			"type":"VEC3"
		},
		{
			"bufferView":1,
			"componentType":5126,
			"count":88015,
			"type":"VEC3"
		},
		{
			"bufferView":2,
			"componentType":5125,
			"count":90456,
			"type":"SCALAR"
		}
	],
	"bufferViews":[
		{
			"buffer":0,
			"byteLength":1056180,
			"byteOffset":0,
			"target":34962
		},
		{
			"buffer":0,
			"byteLength":1056180,
			"byteOffset":1056180,
			"target":34962
		},
		{
			"buffer":0,
			"byteLength":361824,
			"byteOffset":2112360,
			"target":34963
		}
	],
	"buffers":[
		{
			"byteLength":2474184,
			"uri":"G1-EDU_Ultimate_B_Leg_L_1.bin"
		}
	]
}
