{
	"asset":{
		"generator":"Khronos glTF Blender I/O v4.5.47",
		"version":"2.0"
	},
	"extensionsUsed":[
		"KHR_materials_specular"
	],
	"scene":0,
	"scenes":[
		{
			"name":"Scene",
			"nodes":[
				0
			]
		}
	],
	"nodes":[
		{
			"mesh":0,
			"name":"node60"
		}
	],
	"materials":[
		{
			"doubleSided":true,
			"extensions":{
				"KHR_materials_specular":{
					"specularFactor":0
				}
			},
			"name":"mat_2",
			"pbrMetallicRoughness":{
				"baseColorFactor":[
					0.8307698965072632,
					0.8307698965072632,
					0.8307698965072632,
					1
				],
				"metallicFactor":0.5,
				"roughnessFactor":0.5
			}
		}
	],
	"meshes":[
		{
			"name":"Part__Feature060",
			"primitives":[
				{
					"attributes":{
						"POSITION":0,
						"NORMAL":1
					},
					"indices":2,
					"material":0
				}
			]
		}
	],
	"accessors":[
		{
			"bufferView":0,
			"componentType":5126,
			"count":46476,
			"max":[
				0.029995886608958244,
				0.023871473968029022,
				0.04099419713020325
			],
			"min":[
				-0.030499080196022987,
				-0.02999391034245491,
				-0.018001370131969452
			],
			"type":"VEC3"
		},
		{
			"bufferView":1,
			"componentType":5126,
			"count":46476,
			"type":"VEC3"
		},
		{
			"bufferView":2,
			"componentType":5123,
			"count":47340,
			"type":"SCALAR"
		}
	],
	"bufferViews":[
		{
			"buffer":0,
			"byteLength":557712,
			"byteOffset":0,
			"target":34962
		},
		{
			"buffer":0,
			"byteLength":557712,
			"byteOffset":557712,
			"target":34962
		},
		{
			"buffer":0,
			"byteLength":94680,
			"byteOffset":1115424,
			"target":34963
		}
	],
	"buffers":[
		{
			"byteLength":1210104,
			"uri":"G1-EDU_Ultimate_B_left_7.bin"
		}
	]
}
