{
	"asset":{
		"generator":"Khronos glTF Blender I/O v4.5.47",
		"version":"2.0"
	},
	"extensionsUsed":[
		"KHR_materials_specular"
	],
	"scene":0,
	"scenes":[
		{
			"name":"Scene",
			"nodes":[
				0
			]
		}
	],
	"nodes":[
		{
			"mesh":0,
			"name":"node48"
		}
	],
	"materials":[
		{
			"doubleSided":true,
			"extensions":{
				"KHR_materials_specular":{
					"specularFactor":0
				}
			},
			"name":"mat_2",
			"pbrMetallicRoughness":{
				"baseColorFactor":[
					0.8307698965072632,
					0.8307698965072632,
					0.8307698965072632,
					1
				],
				"metallicFactor":0.5,
				"roughnessFactor":0.5
			}
		}
	],
	"meshes":[
		{
			"name":"Part__Feature048",
			"primitives":[
				{
					"attributes":{
						"POSITION":0,
						"NORMAL":1
					},
					"indices":2,
					"material":0
				}
			]
		}
	],
	"accessors":[
		{
			"bufferView":0,
			"componentType":5126,
			"count":122895,
			"max":[
				0.037626657634973526,
				0.016258712857961655,
				0.11903931200504303
			],
			"min":[
				-0.03789934888482094,
				-0.10015430301427841,
				-0.08024092763662338
			],
			"type":"VEC3"
		},
		{
			"bufferView":1,
			"componentType":5126,
			"count":122895,
			"type":"VEC3"
		},
		{
			"bufferView":2,
			"componentType":5125,
			"count":123336,
			"type":"SCALAR"
		}
	],
	"bufferViews":[
		{
			"buffer":0,
			"byteLength":1474740,
			"byteOffset":0,
			"target":34962
		},
		{
			"buffer":0,
			"byteLength":1474740,
			"byteOffset":1474740,
			"target":34962
		},
		{
			"buffer":0,
			"byteLength":493344,
			"byteOffset":2949480,
			"target":34963
		}
	],
	"buffers":[
		{
			"byteLength":3442824,
			"uri":"G1-EDU_Ultimate_B_Leg_L_4.bin"
		}
	]
}
