{
	"asset":{
		"generator":"Khronos glTF Blender I/O v4.3.47",
		"version":"2.0"
	},
	"extensionsUsed":[
		"KHR_materials_specular"
	],
	"scene":0,
	"scenes":[
		{
			"name":"Scene",
			"nodes":[
				0
			]
		}
	],
	"nodes":[
		{
			"mesh":0,
			"name":"node37"
		}
	],
	"materials":[
		{
			"doubleSided":true,
			"extensions":{
				"KHR_materials_specular":{
					"specularFactor":0
				}
			},
			"name":"mat_2",
			"pbrMetallicRoughness":{
				"baseColorFactor":[
					0.8307698965072632,
					0.8307698965072632,
					0.8307698965072632,
					1
				],
				"metallicFactor":0.5,
				"roughnessFactor":0.5
			}
		}
	],
	"meshes":[
		{
			"name":"Part__Feature037",
			"primitives":[
				{
					"attributes":{
						"POSITION":0,
						"NORMAL":1
					},
					"indices":2,
					"material":0
				}
			]
		}
	],
	"accessors":[
		{
			"bufferView":0,
			"componentType":5126,
			"count":162600,
			"max":[
				0.03333122655749321,
				0.03332500904798508,
				0.04103071615099907
			],
			"min":[
				-0.03952622041106224,
				-0.07072785496711731,
				-0.040163490921258926
			],
			"type":"VEC3"
		},
		{
			"bufferView":1,
			"componentType":5126,
			"count":162600,
			"type":"VEC3"
		},
		{
			"bufferView":2,
			"componentType":5125,
			"count":163908,
			"type":"SCALAR"
		}
	],
	"bufferViews":[
		{
			"buffer":0,
			"byteLength":1951200,
			"byteOffset":0,
			"target":34962
		},
		{
			"buffer":0,
			"byteLength":1951200,
			"byteOffset":1951200,
			"target":34962
		},
		{
			"buffer":0,
			"byteLength":655632,
			"byteOffset":3902400,
			"target":34963
		}
	],
	"buffers":[
		{
			"byteLength":4558032,
			"uri":"G1-EDU_Ultimate_B_right_2.bin"
		}
	]
}
