{
	"asset":{
		"generator":"Khronos glTF Blender I/O v4.5.47",
		"version":"2.0"
	},
	"extensionsUsed":[
		"KHR_materials_specular"
	],
	"scene":0,
	"scenes":[
		{
			"name":"Scene",
			"nodes":[
				0
			]
		}
	],
	"nodes":[
		{
			"mesh":0,
			"name":"node30",
			"rotation":[
				0,
				0.7071068286895752,
				0,
				0.7071068286895752
			]
		}
	],
	"materials":[
		{
			"doubleSided":true,
			"extensions":{
				"KHR_materials_specular":{
					"specularFactor":0
				}
			},
			"name":"mat_2",
			"pbrMetallicRoughness":{
				"baseColorFactor":[
					0.8307698965072632,
					0.8307698965072632,
					0.8307698965072632,
					1
				],
				"metallicFactor":0.5,
				"roughnessFactor":0.5
			}
		}
	],
	"meshes":[
		{
			"name":"Part__Feature030",
			"primitives":[
				{
					"attributes":{
						"POSITION":0,
						"NORMAL":1
					},
					"indices":2,
					"material":0
				}
			]
		}
	],
	"accessors":[
		{
			"bufferView":0,
			"componentType":5126,
			"count":216566,
			"max":[
				0.1373210996389389,
				0.04695738106966019,
				0.048947032541036606
			],
			"min":[
				-0.04514792561531067,
				-0.34985145926475525,
				-0.048947062343358994
			],
			"type":"VEC3"
		},
		{
			"bufferView":1,
			"componentType":5126,
			"count":216566,
			"type":"VEC3"
		},
		{
			"bufferView":2,
			"componentType":5125,
			"count":220893,
			"type":"SCALAR"
		}
	],
	"bufferViews":[
		{
			"buffer":0,
			"byteLength":2598792,
			"byteOffset":0,
			"target":34962
		},
		{
			"buffer":0,
			"byteLength":2598792,
			"byteOffset":2598792,
			"target":34962
		},
		{
			"buffer":0,
			"byteLength":883572,
			"byteOffset":5197584,
			"target":34963
		}
	],
	"buffers":[
		{
			"byteLength":6081156,
			"uri":"G1-EDU_Ultimate_B_Leg_L_2.bin"
		}
	]
}
