{
	"asset":{
		"generator":"Khronos glTF Blender I/O v4.3.47",
		"version":"2.0"
	},
	"scene":0,
	"scenes":[
		{
			"name":"Scene",
			"nodes":[
				0
			]
		}
	],
	"nodes":[
		{
			"mesh":0,
			"name":"node57"
		}
	],
	"materials":[
		{
			"doubleSided":true,
			"name":"mat_2",
			"pbrMetallicRoughness":{
				"baseColorFactor":[
					0.8307698965072632,
					0.8307698965072632,
					0.8307698965072632,
					1
				],
				"metallicFactor":0.5,
				"roughnessFactor":0.5
			}
		}
	],
	"meshes":[
		{
			"name":"Part__Feature057",
			"primitives":[
				{
					"attributes":{
						"POSITION":0,
						"NORMAL":1
					},
					"indices":2,
					"material":0
				}
			]
		}
	],
	"accessors":[
		{
			"bufferView":0,
			"componentType":5126,
			"count":6473,
			"max":[
				0.048002298921346664,
				0.030567700043320656,
				0.048002827912569046
			],
			"min":[
				-0.04800200089812279,
				-0.01492558978497982,
				-0.04800200089812279
			],
			"type":"VEC3"
		},
		{
			"bufferView":1,
			"componentType":5126,
			"count":6473,
			"type":"VEC3"
		},
		{
			"bufferView":2,
			"componentType":5123,
			"count":7866,
			"type":"SCALAR"
		}
	],
	"bufferViews":[
		{
			"buffer":0,
			"byteLength":77676,
			"byteOffset":0,
			"target":34962
		},
		{
			"buffer":0,
			"byteLength":77676,
			"byteOffset":77676,
			"target":34962
		},
		{
			"buffer":0,
			"byteLength":15732,
			"byteOffset":155352,
			"target":34963
		}
	],
	"buffers":[
		{
			"byteLength":171084,
			"uri":"G1-EDU_Ultimate_B_waist.bin"
		}
	]
}
